%% Diagrama OLTP — Modelo transaccional Olist (Brazilian E-Commerce)
%% 9 tablas crudas tal como llegan de la fuente.
%% Renderizar con: https://mermaid.live  o VSCode + extensión "Markdown Preview Mermaid Support".

erDiagram
    olist_customers_dataset {
        string customer_id PK
        string customer_unique_id
        string customer_zip_code_prefix FK
        string customer_city
        string customer_state
    }

    olist_orders_dataset {
        string order_id PK
        string customer_id FK
        string order_status
        datetime order_purchase_timestamp
        datetime order_approved_at
        datetime order_delivered_carrier_date
        datetime order_delivered_customer_date
        datetime order_estimated_delivery_date
    }

    olist_order_items_dataset {
        string order_id PK_FK
        int order_item_id PK
        string product_id FK
        string seller_id FK
        datetime shipping_limit_date
        float price
        float freight_value
    }

    olist_order_payments_dataset {
        string order_id PK_FK
        int payment_sequential PK
        string payment_type
        int payment_installments
        float payment_value
    }

    olist_order_reviews_dataset {
        string review_id PK
        string order_id FK
        int review_score
        string review_comment_title
        string review_comment_message
        datetime review_creation_date
        datetime review_answer_timestamp
    }

    olist_products_dataset {
        string product_id PK
        string product_category_name FK
        int product_name_lenght
        int product_description_lenght
        int product_photos_qty
        float product_weight_g
        float product_length_cm
        float product_height_cm
        float product_width_cm
    }

    olist_sellers_dataset {
        string seller_id PK
        string seller_zip_code_prefix FK
        string seller_city
        string seller_state
    }

    olist_geolocation_dataset {
        string geolocation_zip_code_prefix PK
        float geolocation_lat
        float geolocation_lng
        string geolocation_city
        string geolocation_state
    }

    product_category_name_translation {
        string product_category_name PK
        string product_category_name_english
    }

    olist_customers_dataset ||--o{ olist_orders_dataset : "realiza"
    olist_orders_dataset ||--|{ olist_order_items_dataset : "contiene"
    olist_orders_dataset ||--o{ olist_order_payments_dataset : "se_paga_con"
    olist_orders_dataset ||--o{ olist_order_reviews_dataset : "recibe"
    olist_products_dataset ||--o{ olist_order_items_dataset : "es_vendido_en"
    olist_sellers_dataset ||--o{ olist_order_items_dataset : "vende"
    product_category_name_translation ||--o{ olist_products_dataset : "traduce"
    olist_geolocation_dataset ||--o{ olist_customers_dataset : "ubica_cliente"
    olist_geolocation_dataset ||--o{ olist_sellers_dataset : "ubica_seller"
